<svg xmlns="http://www.w3.org/2000/svg" width="895.885" height="895.802" viewBox="0 0 895.885 895.802">
  <g id="Group_365" data-name="Group 365" transform="translate(-104.574 35.604)">
    <g id="Small_Elements" data-name="Small Elements" transform="translate(104.574 -35.604)">
      <g id="Group_226" data-name="Group 226" transform="translate(39.444 142.448)">
        <g id="Group_223" data-name="Group 223" transform="translate(27.19 49.401)">
          <g id="Group_220" data-name="Group 220" transform="translate(2.298 2.298)">
            <g id="Group_219" data-name="Group 219">
              <circle id="Ellipse_95" data-name="Ellipse 95" cx="26.807" cy="26.807" r="26.807" fill="#75cc8a"/>
            </g>
          </g>
          <g id="Group_222" data-name="Group 222">
            <g id="Group_221" data-name="Group 221">
              <path id="Path_12" data-name="Path 12" d="M220.678,273.092a29.1,29.1,0,1,1,29.1-29.1A29.138,29.138,0,0,1,220.678,273.092Zm0-53.613a24.509,24.509,0,1,0,24.509,24.509A24.537,24.537,0,0,0,220.678,219.478Z" transform="translate(-191.574 -214.883)" fill="#75cc8a"/>
            </g>
          </g>
        </g>
        <g id="Group_225" data-name="Group 225">
          <g id="Group_224" data-name="Group 224">
            <path id="Path_13" data-name="Path 13" d="M193.22,224.675a37.146,37.146,0,1,1,37.146-37.146A37.188,37.188,0,0,1,193.22,224.675Zm0-69.7a32.551,32.551,0,1,0,32.551,32.551A32.588,32.588,0,0,0,193.22,154.978Z" transform="translate(-156.074 -150.383)" fill="#75cc8a"/>
          </g>
        </g>
      </g>
      <g id="Group_234" data-name="Group 234" transform="translate(656.222)">
        <g id="Group_231" data-name="Group 231" transform="translate(7.659 35.44)">
          <g id="Group_228" data-name="Group 228" transform="translate(3.985 4.586)">
            <g id="Group_227" data-name="Group 227">
              <path id="Path_14" data-name="Path 14" d="M976.574,61.635h52.081l-26.041-44.979Z" transform="translate(-976.574 -16.656)" fill="#87bfff"/>
            </g>
          </g>
          <g id="Group_230" data-name="Group 230" transform="translate(0 0)">
            <g id="Group_229" data-name="Group 229">
              <path id="Path_15" data-name="Path 15" d="M1031.422,62.531H971.371L1001.4,10.668Zm-52.081-4.6h44.111L1001.4,19.84Z" transform="translate(-971.371 -10.668)" fill="#87bfff"/>
            </g>
          </g>
        </g>
        <g id="Group_233" data-name="Group 233">
          <g id="Group_232" data-name="Group 232">
            <path id="Path_16" data-name="Path 16" d="M1036.74,29.488H961.371L999.056-35.6Zm-67.4-4.6h59.429L999.056-26.432Z" transform="translate(-961.371 35.604)" fill="#87bfff"/>
          </g>
        </g>
      </g>
      <g id="Group_236" data-name="Group 236" transform="translate(0 401.706)">
        <g id="Group_235" data-name="Group 235">
          <path id="Path_17" data-name="Path 17" d="M109.17,569.3h-4.6V540.2H135.21V513.392h29.87V488.883h4.6v29.1h-29.87v26.807H109.17Z" transform="translate(-104.574 -488.883)" fill="#5087c7"/>
        </g>
      </g>
      <g id="Group_238" data-name="Group 238" transform="translate(10.272 411.437)">
        <g id="Group_237" data-name="Group 237">
          <path id="Path_18" data-name="Path 18" d="M122.581,582.009h-4.6V552.9h30.636V526.1h29.87V501.589h4.6v29.1h-29.87V557.5H122.581Z" transform="translate(-117.986 -501.589)" fill="#5087c7"/>
        </g>
      </g>
      <g id="Group_243" data-name="Group 243" transform="translate(684.333 415.109)">
        <g id="Group_240" data-name="Group 240" transform="translate(16.618 9.191)">
          <g id="Group_239" data-name="Group 239">
            <rect id="Rectangle_664" data-name="Rectangle 664" width="66.633" height="18.382" fill="#e18f8f"/>
          </g>
        </g>
        <g id="Group_242" data-name="Group 242">
          <g id="Group_241" data-name="Group 241">
            <path id="Path_19" data-name="Path 19" d="M1069.3,529.36H998.074V506.383H1069.3Zm-66.633-4.6h62.038V510.978h-62.038Z" transform="translate(-998.074 -506.383)" fill="#e18f8f"/>
          </g>
        </g>
      </g>
    </g>
    <g id="Screen" transform="translate(205.77 86.637)">
      <g id="Group_269" data-name="Group 269">
        <g id="Group_248" data-name="Group 248">
          <g id="Group_245" data-name="Group 245" transform="translate(2.298 2.298)">
            <g id="Group_244" data-name="Group 244">
              <rect id="Rectangle_665" data-name="Rectangle 665" width="526.175" height="355.379" fill="#fff"/>
            </g>
          </g>
          <g id="Group_247" data-name="Group 247">
            <g id="Group_246" data-name="Group 246">
              <path id="Path_20" data-name="Path 20" d="M767.471,483.974H236.7V124h530.77Zm-526.175-4.6H762.876V128.6H241.3Z" transform="translate(-236.701 -124)" fill="#1e1a15"/>
            </g>
          </g>
        </g>
        <g id="Group_253" data-name="Group 253" transform="translate(2.298 38.295)">
          <g id="Group_250" data-name="Group 250" transform="translate(0 2.298)">
            <g id="Group_249" data-name="Group 249">
              <path id="Path_21" data-name="Path 21" d="M239.7,177h0Z" transform="translate(-239.701 -177)" fill="#fff"/>
            </g>
          </g>
          <g id="Group_252" data-name="Group 252" transform="translate(0)">
            <g id="Group_251" data-name="Group 251">
              <rect id="Rectangle_666" data-name="Rectangle 666" width="526.175" height="4.595" fill="#1e1a15"/>
            </g>
          </g>
        </g>
        <g id="Group_258" data-name="Group 258" transform="translate(17.999 9.574)">
          <g id="Group_255" data-name="Group 255" transform="translate(2.298 2.298)">
            <g id="Group_254" data-name="Group 254">
              <circle id="Ellipse_96" data-name="Ellipse 96" cx="8.425" cy="8.425" r="8.425" fill="#ea4235"/>
            </g>
          </g>
          <g id="Group_257" data-name="Group 257">
            <g id="Group_256" data-name="Group 256">
              <path id="Path_22" data-name="Path 22" d="M270.924,157.945a10.723,10.723,0,1,1,10.723-10.723A10.735,10.735,0,0,1,270.924,157.945Zm0-16.85a6.127,6.127,0,1,0,6.127,6.127A6.134,6.134,0,0,0,270.924,141.1Z" transform="translate(-260.201 -136.5)" fill="#1e1a15"/>
            </g>
          </g>
        </g>
        <g id="Group_263" data-name="Group 263" transform="translate(44.039 9.574)">
          <g id="Group_260" data-name="Group 260" transform="translate(2.298 2.298)">
            <g id="Group_259" data-name="Group 259">
              <circle id="Ellipse_97" data-name="Ellipse 97" cx="8.425" cy="8.425" r="8.425" fill="#fcbc03"/>
            </g>
          </g>
          <g id="Group_262" data-name="Group 262">
            <g id="Group_261" data-name="Group 261">
              <path id="Path_23" data-name="Path 23" d="M304.924,157.945a10.723,10.723,0,1,1,10.723-10.723A10.735,10.735,0,0,1,304.924,157.945Zm0-16.85a6.127,6.127,0,1,0,6.127,6.127A6.134,6.134,0,0,0,304.924,141.1Z" transform="translate(-294.201 -136.5)" fill="#1e1a15"/>
            </g>
          </g>
        </g>
        <g id="Group_268" data-name="Group 268" transform="translate(70.846 9.574)">
          <g id="Group_265" data-name="Group 265" transform="translate(2.298 2.298)">
            <g id="Group_264" data-name="Group 264">
              <circle id="Ellipse_98" data-name="Ellipse 98" cx="8.425" cy="8.425" r="8.425" fill="#4385f5"/>
            </g>
          </g>
          <g id="Group_267" data-name="Group 267">
            <g id="Group_266" data-name="Group 266">
              <path id="Path_24" data-name="Path 24" d="M339.924,157.945a10.723,10.723,0,1,1,10.723-10.723A10.735,10.735,0,0,1,339.924,157.945Zm0-16.85a6.127,6.127,0,1,0,6.127,6.127A6.134,6.134,0,0,0,339.924,141.1Z" transform="translate(-329.201 -136.5)" fill="#1e1a15"/>
            </g>
          </g>
        </g>
      </g>
      <g id="Group_271" data-name="Group 271" transform="translate(34.888 67.016)">
        <g id="Group_270" data-name="Group 270">
          <path id="Path_25" data-name="Path 25" d="M412.822,326.768h-9.191v-4.6h9.191Zm-18.382,0h-9.191v-4.6h9.191Zm-18.382,0h-9.191v-4.6h9.191Zm-18.382,0h-9.191v-4.6h9.191Zm-18.382,0H330.1v-4.6H339.3Zm-18.382,0h-9.191v-4.6h9.191Zm-18.382,0h-9.191v-4.6h9.191Zm-15.683-2.7h-4.6v-9.191h4.6Zm128.279-8.781h-4.6V306.1h4.6Zm-128.279-9.6h-4.6V296.5h4.6Zm128.279-8.782h-4.6v-9.191h4.6Zm-128.279-9.6h-4.6v-9.191h4.6Zm128.279-8.782h-4.6v-9.191h4.6Zm-128.279-9.6h-4.6v-9.191h4.6Zm128.279-8.782h-4.6v-9.191h4.6Zm-128.279-9.6h-4.6v-9.191h4.6Zm128.279-8.782h-4.6v-9.191h4.6Zm-128.279-9.6h-4.6v-9.191h4.6Zm128.279-8.782h-4.6v-9.191h4.6Zm-11.1-7.285h-9.191v-4.6h9.191Zm-18.382,0h-9.191v-4.6h9.191Zm-18.382,0h-9.191v-4.6h9.191Zm-18.382,0H339.7v-4.6h9.191Zm-18.382,0h-9.191v-4.6H330.5Zm-18.382,0h-9.191v-4.6h9.191Zm-18.382,0h-9.191v-4.6h9.191Z" transform="translate(-282.253 -211.5)" fill="#1e1a15"/>
        </g>
      </g>
      <g id="Group_276" data-name="Group 276" transform="translate(34.888 205.645)">
        <g id="Group_273" data-name="Group 273" transform="translate(2.297 2.298)">
          <g id="Group_272" data-name="Group 272">
            <rect id="Rectangle_667" data-name="Rectangle 667" width="128.28" height="110.673" fill="#e18f8f"/>
          </g>
        </g>
        <g id="Group_275" data-name="Group 275">
          <g id="Group_274" data-name="Group 274">
            <path id="Path_26" data-name="Path 26" d="M415.128,507.768H282.253V392.5H415.128Zm-128.279-4.6H410.532V397.1H286.848Z" transform="translate(-282.253 -392.5)" fill="#1e1a15"/>
          </g>
        </g>
      </g>
      <g id="Group_281" data-name="Group 281" transform="translate(198.791 67.016)">
        <g id="Group_278" data-name="Group 278" transform="translate(2.297 2.298)">
          <g id="Group_277" data-name="Group 277">
            <rect id="Rectangle_668" data-name="Rectangle 668" width="128.28" height="110.673" fill="#fff"/>
          </g>
        </g>
        <g id="Group_280" data-name="Group 280">
          <g id="Group_279" data-name="Group 279">
            <path id="Path_27" data-name="Path 27" d="M629.128,326.768H496.253V211.5H629.128Zm-128.279-4.6H624.532V216.1H500.848Z" transform="translate(-496.253 -211.5)" fill="#1e1a15"/>
          </g>
        </g>
      </g>
      <g id="Group_286" data-name="Group 286" transform="translate(198.791 205.645)">
        <g id="Group_283" data-name="Group 283" transform="translate(2.297 2.298)">
          <g id="Group_282" data-name="Group 282">
            <rect id="Rectangle_669" data-name="Rectangle 669" width="128.28" height="110.673" fill="#fff"/>
          </g>
        </g>
        <g id="Group_285" data-name="Group 285">
          <g id="Group_284" data-name="Group 284">
            <path id="Path_28" data-name="Path 28" d="M629.128,507.768H496.253V392.5H629.128Zm-128.279-4.6H624.532V397.1H500.848Z" transform="translate(-496.253 -392.5)" fill="#1e1a15"/>
          </g>
        </g>
      </g>
      <g id="Group_291" data-name="Group 291" transform="translate(360.397 67.016)">
        <g id="Group_288" data-name="Group 288" transform="translate(2.297 2.298)">
          <g id="Group_287" data-name="Group 287">
            <rect id="Rectangle_670" data-name="Rectangle 670" width="128.28" height="110.673" fill="#fff"/>
          </g>
        </g>
        <g id="Group_290" data-name="Group 290">
          <g id="Group_289" data-name="Group 289">
            <path id="Path_29" data-name="Path 29" d="M840.128,326.768H707.253V211.5H840.128Zm-128.279-4.6H835.532V216.1H711.848Z" transform="translate(-707.253 -211.5)" fill="#1e1a15"/>
          </g>
        </g>
      </g>
      <g id="Group_296" data-name="Group 296" transform="translate(360.397 205.645)">
        <g id="Group_293" data-name="Group 293" transform="translate(2.297 2.298)">
          <g id="Group_292" data-name="Group 292">
            <rect id="Rectangle_671" data-name="Rectangle 671" width="128.28" height="110.673" fill="#fff"/>
          </g>
        </g>
        <g id="Group_295" data-name="Group 295">
          <g id="Group_294" data-name="Group 294">
            <path id="Path_30" data-name="Path 30" d="M840.128,507.768H707.253V392.5H840.128Zm-128.279-4.6H835.532V397.1H711.848Z" transform="translate(-707.253 -392.5)" fill="#1e1a15"/>
          </g>
        </g>
      </g>
    </g>
    <g id="Group_301" data-name="Group 301" transform="translate(805.128 146.76)">
      <g id="Group_298" data-name="Group 298" transform="translate(2.297 2.298)">
        <g id="Group_297" data-name="Group 297">
          <rect id="Rectangle_672" data-name="Rectangle 672" width="128.28" height="110.673" fill="#75cc8a"/>
        </g>
      </g>
      <g id="Group_300" data-name="Group 300" transform="translate(0 0)">
        <g id="Group_299" data-name="Group 299">
          <path id="Path_31" data-name="Path 31" d="M1152.128,317.768H1019.253V202.5h132.875Zm-128.279-4.6h123.684V207.1H1023.848Z" transform="translate(-1019.253 -202.5)" fill="#1e1a15"/>
        </g>
      </g>
    </g>
    <g id="Group_306" data-name="Group 306" transform="translate(381.585 194.246)">
      <g id="Group_303" data-name="Group 303" transform="translate(2.297 2.298)">
        <g id="Group_302" data-name="Group 302">
          <rect id="Rectangle_673" data-name="Rectangle 673" width="128.28" height="110.673" fill="#87bfff"/>
        </g>
      </g>
      <g id="Group_305" data-name="Group 305">
        <g id="Group_304" data-name="Group 304">
          <path id="Path_32" data-name="Path 32" d="M599.128,379.768H466.253V264.5H599.128Zm-128.279-4.6H594.532V269.1H470.848Z" transform="translate(-466.253 -264.5)" fill="#1e1a15"/>
        </g>
      </g>
    </g>
    <g id="Group_311" data-name="Group 311" transform="translate(467.218 240.736)">
      <g id="Group_308" data-name="Group 308" transform="translate(3.815 2.386)">
        <g id="Group_307" data-name="Group 307">
          <path id="Path_33" data-name="Path 33" d="M637.943,368.618s-5.078-22.215-3.808-38.717c0,0-7.934.318-9.2,11.742,0,0-15.233-12.694-33.64-13.328a11.76,11.76,0,0,0,9.521,10.155l-17.772.634s3.808,6.982,15.868,7.617l-15.868,3.173a12.828,12.828,0,0,0,11.425,5.078l-8.251,10.155a9.425,9.425,0,0,0,10.155-1.9l1.269,1.9s-5.712,21.58,8.251,27.292c0,0,17.772,71.721,46.968,92.032,0,0,8.886,10.155,90.128-23.484l-34.909-57.123L668.726,424.79Z" transform="translate(-583.041 -328.315)" fill="#fff"/>
        </g>
      </g>
      <g id="Group_310" data-name="Group 310">
        <g id="Group_309" data-name="Group 309">
          <path id="Path_34" data-name="Path 34" d="M658.881,487.436c-5.508,0-7.754-1.163-8.631-1.918-27.851-19.534-45.04-82.738-47.48-92.186-11.645-5.691-10.134-21.083-9.04-27.1a11.489,11.489,0,0,1-9.709.22l-2.562-1.281,7.275-8.954a15.138,15.138,0,0,1-8.771-5.779l-1.9-2.855,9.121-1.824a16.862,16.862,0,0,1-7.324-6.285l-1.78-3.264,13.406-.479a13.984,13.984,0,0,1-3.649-7.971l-.2-2.562,2.567.089c14.276.492,26.535,7.785,32.005,11.6,2.165-7.563,7.687-9.889,10.666-10.008l2.581-.1-.2,2.575c-1.149,14.938,3.1,35.013,3.689,37.722l29.535,53.894,39.259-20.9,37.439,61.264-2.483,1.028C692.879,482.99,669.648,487.436,658.881,487.436Zm-5.6-5.383c1.114.655,13.9,6.349,85.172-22.913l-32.376-52.98-39.444,20.995-32.029-58.443-.071-.312c-.2-.86-4.507-19.938-4.036-36.023-1.76,1.094-3.865,3.5-4.452,8.79l-.472,4.247-3.283-2.736a52.753,52.753,0,0,0-4.635-3.283l-30.485,1.09a20.68,20.68,0,0,0,10.69,3.212l18.264.96-29.369,5.874a10.5,10.5,0,0,0,6.35,1.422l5.376-.448-9.163,11.277a7.845,7.845,0,0,0,4.369-2.018l1.972-1.726,3.3,4.946-.265,1c-.051.195-5.021,19.7,6.9,24.579l1.08.442.281,1.132c.175.709,17.9,71.116,46.05,90.7Zm-.071-.046M593.2,330.115a9.381,9.381,0,0,0,6.931,5.379l17.185,3.681C612.078,335.864,603.222,331.244,593.2,330.115Z" transform="translate(-578.06 -325.2)" fill="#1e1a15"/>
        </g>
      </g>
    </g>
    <g id="Group_316" data-name="Group 316" transform="translate(727.536 196.337)">
      <g id="Group_313" data-name="Group 313" transform="translate(2.96 2.972)">
        <g id="Group_312" data-name="Group 312">
          <path id="Path_35" data-name="Path 35" d="M998.449,322.571s-1.149-22.759-6.853-38.3c0,0,7.722-1.85,12.047,8.8,0,0,11.212-16.355,28.753-21.966a11.76,11.76,0,0,1-6.4,12.359l17.276-4.217s-1.768,7.754-13.2,11.641l16.133-1.257a12.828,12.828,0,0,1-9.615,7.991l10.7,7.532a9.426,9.426,0,0,1-10.291.926l-.7,2.177s11.36,19.216-.527,28.508c0,0-2.114,79.071-20.835,97.522,0,0-16.187,10.746-93.117-3.194l18.712-60.65,43.562,14.545Z" transform="translate(-921.809 -271.11)" fill="#fff"/>
        </g>
      </g>
      <g id="Group_315" data-name="Group 315" transform="translate(0 0)">
        <g id="Group_314" data-name="Group 314">
          <path id="Path_36" data-name="Path 36" d="M986.105,439.611c-14.4,0-35.4-1.685-65.611-7.16l-2.551-.462,20.17-65.373L981.506,381.1l13.725-59.638c-.165-2.77-1.538-23.255-6.7-37.306l-.89-2.425,2.511-.6c2.9-.694,8.845.044,12.984,6.734,4.229-5.154,14.045-15.5,27.651-19.854l2.446-.783.506,2.519a13.978,13.978,0,0,1-1.346,8.662l13.033-3.181-.827,3.624a16.846,16.846,0,0,1-5.341,8.038l9.274-.722-1.056,3.265a15.149,15.149,0,0,1-6.872,7.943l9.434,6.641-2.118,1.929a11.486,11.486,0,0,1-9.4,2.427c2.692,5.5,8.348,19.954-1.4,28.589-.328,9.846-3.294,80.126-21.487,98.056l-.158.155-.184.122C1014.872,435.578,1008.38,439.611,986.105,439.611Zm-62.24-11.225c68.389,12.115,87,4.042,88.747,3.159,17.665-17.977,19.927-94.966,19.948-95.745l.029-1.082.853-.666c10.147-7.932.065-25.355-.038-25.53l-.524-.891,1.828-5.654,2.365,1.124a7.834,7.834,0,0,0,4.753.754l-11.881-8.364,5.3-1.029a10.486,10.486,0,0,0,5.724-3.093L1011.1,293.7l17.318-5.887a20.665,20.665,0,0,0,9.412-5.994l-29.642,7.235a52,52,0,0,0-3.559,4.416l-2.417,3.525-1.608-3.959c-2-4.926-4.675-6.672-6.672-7.248,4.821,15.352,5.857,34.881,5.9,35.761l.016.319-15.006,65.2-43.731-14.6ZM1029.22,273.47c-9.369,3.817-16.632,10.674-20.761,15.28l15.554-8.22A9.387,9.387,0,0,0,1029.22,273.47Z" transform="translate(-917.944 -267.23)" fill="#1e1a15"/>
        </g>
      </g>
    </g>
    <g id="Group_321" data-name="Group 321" transform="translate(624.107 199.979)">
      <g id="Group_318" data-name="Group 318" transform="translate(2.301 2.739)">
        <g id="Group_317" data-name="Group 317">
          <path id="Path_37" data-name="Path 37" d="M803.135,379.757l-2.217-45.078s-40.644-14.041,11.823-59.118l38.427,19.213L846,329.506l6.651,38.428Z" transform="translate(-785.907 -275.561)" fill="#fff"/>
        </g>
      </g>
      <g id="Group_320" data-name="Group 320" transform="translate(0 0)">
        <g id="Group_319" data-name="Group 319">
          <path id="Path_38" data-name="Path 38" d="M800.273,381.8l-2.281-46.381c-3.626-1.619-12.748-6.653-14.718-16.975-2.4-12.562,6.777-27.856,27.266-45.46l1.159-1,41.284,20.642-5.364,36.014,6.955,40.188Zm12.11-104.332c-18.091,15.806-26.59,29.659-24.595,40.114,1.926,10.1,13.064,14.052,13.176,14.09l1.469.508,2.157,43.864,44.72-10.68L842.966,328.7l4.982-33.45Z" transform="translate(-782.902 -271.985)" fill="#1e1a15"/>
        </g>
      </g>
    </g>
    <g id="Group_326" data-name="Group 326" transform="translate(691.212 386.978)">
      <g id="Group_323" data-name="Group 323" transform="translate(3.062 2.573)">
        <g id="Group_322" data-name="Group 322">
          <path id="Path_39" data-name="Path 39" d="M970.254,519.5l28.338,120.247,104.929,124.076-40.593,42.891L938.96,696.6A66.244,66.244,0,0,1,920.2,668.3L874.516,533.286Z" transform="translate(-874.516 -519.5)" fill="#595a5c"/>
        </g>
      </g>
      <g id="Group_325" data-name="Group 325">
        <g id="Group_324" data-name="Group 324">
          <path id="Path_40" data-name="Path 40" d="M1062.13,809.123,936.5,697.528a68.662,68.662,0,0,1-19.408-29.277L870.518,530.619,971.072,516.14,999.766,637.9l105.9,125.225ZM876.642,534.38l44.8,132.4a64.053,64.053,0,0,0,18.106,27.314l122.3,108.639,37.649-39.78L995.546,640.023l-.126-.535-27.856-118.2Z" transform="translate(-870.518 -516.14)" fill="#1e1a15"/>
        </g>
      </g>
    </g>
    <g id="Group_331" data-name="Group 331" transform="translate(639.337 404.476)">
      <g id="Group_328" data-name="Group 328" transform="translate(2.291 2.691)">
        <g id="Group_327" data-name="Group 327">
          <path id="Path_41" data-name="Path 41" d="M845.4,553.223l-34.886,96.317a79.285,79.285,0,0,0-4.095,37.093l24.848,193.583,59.027-6.981L883.7,682.66s19.147-34.466,27.667-52.236c14.913-31.106,42.555-87.924,42.555-87.924Z" transform="translate(-805.779 -542.5)" fill="#595a5c"/>
        </g>
      </g>
      <g id="Group_330" data-name="Group 330">
        <g id="Group_329" data-name="Group 329">
          <path id="Path_42" data-name="Path 42" d="M828.583,881.943,803.445,686.1a81.929,81.929,0,0,1,4.212-38.169l35.379-97.679,114.049-11.269-1.8,3.7c-.276.568-27.811,57.167-42.55,87.912-7.857,16.39-24.91,47.265-27.42,51.8l6.651,192.05Zm17.788-327.4L811.978,649.5A77.319,77.319,0,0,0,808,685.519l24.559,191.326,54.668-6.466-6.549-189.1.309-.558c.191-.344,19.212-34.61,27.6-52.114,12.554-26.187,34.384-71.118,40.764-84.24Z" transform="translate(-802.787 -538.987)" fill="#1e1a15"/>
        </g>
      </g>
    </g>
    <g id="Group_344" data-name="Group 344" transform="translate(862.863 612.709)">
      <g id="Group_333" data-name="Group 333" transform="translate(41.758 104.658)">
        <g id="Group_332" data-name="Group 332">
          <path id="Path_43" data-name="Path 43" d="M1173.808,967.658c-7.334,0-16.1-.937-20.869-4.834a9.774,9.774,0,0,1-3.776-7.2l-.008-.119.005-.119a8.332,8.332,0,0,1,4.722-7.019c6.472-2.963,17.4,1.747,33.4,14.406l4.2,3.325-5.308.752A96.968,96.968,0,0,1,1173.808,967.658ZM1153.76,955.5a5.282,5.282,0,0,0,2.083,3.767c4.778,3.9,16.2,4.113,23.99,3.6-16.006-11.783-22.09-11.207-24.038-10.315A3.75,3.75,0,0,0,1153.76,955.5Z" transform="translate(-1149.155 -947.513)" fill="#1e1a15"/>
        </g>
      </g>
      <g id="Group_335" data-name="Group 335">
        <g id="Group_334" data-name="Group 334">
          <path id="Path_44" data-name="Path 44" d="M1094.634,860.859s32.279-14.668,45.739-49.993l91.858,101.994s-10.39,36.486-39.51,66.607l-12.98-37.485Z" transform="translate(-1094.634 -810.866)" fill="#1e1a15"/>
        </g>
      </g>
      <g id="Group_337" data-name="Group 337" transform="translate(87.257 136.473)">
        <g id="Group_336" data-name="Group 336">
          <rect id="Rectangle_674" data-name="Rectangle 674" width="6.578" height="4.595" transform="matrix(0.725, -0.689, 0.689, 0.725, 0, 4.531)" fill="#fff"/>
        </g>
      </g>
      <g id="Group_339" data-name="Group 339" transform="translate(83.582 125.082)">
        <g id="Group_338" data-name="Group 338">
          <rect id="Rectangle_675" data-name="Rectangle 675" width="7.23" height="4.595" transform="matrix(0.695, -0.719, 0.719, 0.695, 0, 5.2)" fill="#fff"/>
        </g>
      </g>
      <g id="Group_341" data-name="Group 341" transform="translate(74.413 114.842)">
        <g id="Group_340" data-name="Group 340">
          <rect id="Rectangle_676" data-name="Rectangle 676" width="8.483" height="4.595" transform="translate(0 6.012) rotate(-45.132)" fill="#fff"/>
        </g>
      </g>
      <g id="Group_343" data-name="Group 343" transform="translate(55.79 90.197)">
        <g id="Group_342" data-name="Group 342">
          <path id="Path_45" data-name="Path 45" d="M1189.837,962.526l-4.363-3.115c-1.706-1.218-16.7-12.175-17.919-21.8a8.631,8.631,0,0,1,1.942-6.812l.163-.175a7.335,7.335,0,0,1,7.274-1.611c5.763,1.981,9.737,11.207,12.15,28.2Zm-16.925-28.644a3.993,3.993,0,0,0-.8,3.153c.6,4.734,6.634,10.895,11.478,15.038-2.815-15.127-6.527-18.127-8.11-18.7A2.7,2.7,0,0,0,1172.912,933.882Z" transform="translate(-1167.476 -928.632)" fill="#fff"/>
        </g>
      </g>
    </g>
    <g id="Group_357" data-name="Group 357" transform="translate(648.596 698.539)">
      <g id="Group_346" data-name="Group 346" transform="translate(0 80.362)">
        <g id="Group_345" data-name="Group 345">
          <path id="Path_46" data-name="Path 46" d="M842.226,1066.08l-4.522-2.88c-.839-.534-20.574-13.216-22.641-24.667a9.775,9.775,0,0,1,1.808-7.926l.153-.182a8.328,8.328,0,0,1,8.15-2.264c6.846,1.955,12.086,12.637,16.018,32.658ZM820.451,1033.5a5.282,5.282,0,0,0-.865,4.217c1.094,6.071,9.635,13.649,15.889,18.33-4.505-19.361-9.5-22.876-11.562-23.464A3.748,3.748,0,0,0,820.451,1033.5Z" transform="translate(-814.876 -1027.855)" fill="#1e1a15"/>
        </g>
      </g>
      <g id="Group_348" data-name="Group 348" transform="translate(11.063)">
        <g id="Group_347" data-name="Group 347">
          <path id="Path_47" data-name="Path 47" d="M829.32,931.19s34.064,9.835,67.254-8.26l3.509,137.217s-28.764,20.48-70.471,24.442l11.653-36.431Z" transform="translate(-829.32 -922.93)" fill="#1e1a15"/>
        </g>
      </g>
      <g id="Group_350" data-name="Group 350" transform="translate(16.041 133.797)">
        <g id="Group_349" data-name="Group 349">
          <rect id="Rectangle_677" data-name="Rectangle 677" width="8.743" height="4.596" transform="matrix(0.998, -0.059, 0.059, 0.998, 0, 0.512)" fill="#fff"/>
        </g>
      </g>
      <g id="Group_352" data-name="Group 352" transform="translate(22.391 122.917)">
        <g id="Group_351" data-name="Group 351">
          <rect id="Rectangle_678" data-name="Rectangle 678" width="7.23" height="4.595" transform="translate(0 0.687) rotate(-5.454)" fill="#fff"/>
        </g>
      </g>
      <g id="Group_354" data-name="Group 354" transform="translate(21.551 109.8)">
        <g id="Group_353" data-name="Group 353">
          <rect id="Rectangle_679" data-name="Rectangle 679" width="8.483" height="4.595" transform="matrix(0.997, -0.08, 0.08, 0.997, 0, 0.679)" fill="#fff"/>
        </g>
      </g>
      <g id="Group_356" data-name="Group 356" transform="translate(18.899 78.001)">
        <g id="Group_355" data-name="Group 355">
          <path id="Path_48" data-name="Path 48" d="M842.941,1062.14l-1.291-5.2c-.5-2.035-4.779-20.112.553-28.215a8.633,8.633,0,0,1,5.9-3.915l.237-.026a7.32,7.32,0,0,1,6.576,3.5c3.091,5.252.114,14.846-9.1,29.332Zm5.757-32.769a4,4,0,0,0-2.655,1.876c-2.619,3.978-2.037,12.586-1.052,18.887,7.69-13.322,6.82-18.016,5.989-19.48A2.706,2.706,0,0,0,848.7,1029.37Z" transform="translate(-839.551 -1024.771)" fill="#fff"/>
        </g>
      </g>
    </g>
    <g id="Group_362" data-name="Group 362" transform="translate(574.399 275.008)">
      <g id="Group_359" data-name="Group 359" transform="translate(4.281 2.384)">
        <g id="Group_358" data-name="Group 358">
          <path id="Path_49" data-name="Path 49" d="M950.436,512.064l-45.8,9.283h-.008l-2.949.605-14.384,2.918h-.008l-2.428.49L812.7,539.988l-.521-1.019-1.455-2.865V536.1l-4.7-9.221-1.67-3.278-11.45-22.456-1.677-3.293-12.163-23.866-20.633,4.458s-.643-2.642-1.991-6.794c-.314-.988-.674-2.068-1.08-3.209v-.008a123.305,123.305,0,0,0-12.354-25.9c-.643-1-1.317-1.984-2.007-2.956-4.741-6.64-10.516-12.515-17.409-16.007,0,0,9.926-7.674,24-16.559l2.5-1.57c.161-.1.322-.2.483-.291v-.008c12.27-7.559,27.182-15.67,41.336-20.48v-.008q1.85-.632,3.692-1.187c1.049-.322,2.1-.613,3.133-.888l23.184-4.144,2.259-.4,14.836-2.65,2.252-.4,10.784-1.93,20.381,8.816,2.979,1.287h.008L888.9,389h.008l3.056,1.325,24.831,51.921,18.925,39.268.927,1.922Z" transform="translate(-723.591 -373.06)" fill="#5087c7"/>
        </g>
      </g>
      <g id="Group_361" data-name="Group 361">
        <g id="Group_360" data-name="Group 360">
          <path id="Path_50" data-name="Path 50" d="M810.144,541.858l-33.631-65.984-21.091,4.556-.53-2.174c-.007-.025-.644-2.622-1.945-6.627-.339-1.066-.694-2.12-1.059-3.149l-.133-.386a121.091,121.091,0,0,0-11.983-25.034c-.594-.92-1.251-1.887-1.954-2.88-5.113-7.16-10.69-12.306-16.573-15.287L718,423.248l2.876-2.223c.1-.078,10.175-7.844,24.183-16.685l2.511-1.573.26-.16.237-.148c14.934-9.2,28.463-15.977,40.244-20.159v-.008l1.556-.539c1.308-.447,2.578-.855,3.774-1.214.94-.288,1.961-.577,3.2-.908l.187-.041,54-9.643,41.329,17.881,25.2,52.7L952.48,513Zm1.573-7.031.932,1.834L945.775,509.67l-32.363-67.157-24.463-51.152-38.478-16.646L797.932,384.1c-1.142.3-2.084.573-2.959.841s-1.765.544-2.689.85l-.936.323c-11.534,3.919-24.912,10.508-39.778,19.59v.047l-1.156.669c-.139.079-.276.165-.415.251l-2.493,1.563c-9.5,6-17.161,11.486-21.044,14.35a55.531,55.531,0,0,1,15.1,14.934c.745,1.052,1.439,2.074,2.066,3.044a126.175,126.175,0,0,1,12.593,26.385l.129.371c.336.958.663,1.935.972,2.907.638,1.965,1.12,3.6,1.455,4.782L779,470.635Z" transform="translate(-718.001 -369.947)" fill="#1e1a15"/>
        </g>
      </g>
    </g>
    <g id="Group_364" data-name="Group 364" transform="translate(649.322 197.693)">
      <g id="Group_363" data-name="Group 363" transform="translate(0 0)">
        <path id="Path_51" data-name="Path 51" d="M824.179,302.106s-13.938-18.042-5.809-32.083c0,0,54.233-10.5,53.843,35.778-.06,7.188,10.1,29.313,30.52,33.568,64.2,13.376,75.578,83.747,8.472,89.619-71.338,6.242-37.007-37.007-86.052-70-8.652-5.821.892-27.644,4.939-40.624C830.091,318.363,844.871,299.15,824.179,302.106Z" transform="translate(-815.824 -269)" fill="#1e1a15"/>
      </g>
    </g>
  </g>
</svg>
