<svg xmlns="http://www.w3.org/2000/svg" viewBox="0 0 512 512"><defs><style>.cls-1{fill:#fff;}</style></defs><g id="Layer_2" data-name="Layer 2"><g id="Capa_1" data-name="Capa 1"><path class="cls-1" d="M497,211H482V15A15,15,0,0,0,467,0H377a15,15,0,0,0-15,15V30H272a14.92,14.92,0,0,0-13.2,7.9,15.18,15.18,0,0,0,.7,15.4L284,90l-24.5,36.7a14.73,14.73,0,0,0-.7,15.4A15,15,0,0,0,272,150H377a15,15,0,0,0,15-15V120h60v91H377a15,15,0,0,0-15,15v75H257a15,15,0,0,0-15,15v45H136a15,15,0,0,0-15,15v45H15A15,15,0,0,0,0,436v61a15,15,0,0,0,15,15H497a15,15,0,0,0,15-15V226A15,15,0,0,0,497,211ZM362,120H300l14.5-21.7a14.78,14.78,0,0,0,0-16.6L300,60h62Zm30-90h60V90H392ZM30,451h91v31H30Zm121-60h91v91H151Zm121-60h90V482H272ZM482,482H392V241h90Z"/></g></g></svg>