<svg xmlns="http://www.w3.org/2000/svg" viewBox="0 0 209.48 58.14"><defs><style>.cls-1{fill:#4e86bc;}.cls-2{fill:#5071b2;}.cls-3{fill:#453d40;}</style></defs><g id="Layer_2" data-name="Layer 2"><g id="Layer_1-2" data-name="Layer 1"><g id="Layer_64" data-name="Layer 64"><path class="cls-1" d="M82.26,1.74h1.31V12.5h6.54v1H82.26Zm8,10.58H83.76V1.56H82.08V13.7H90.3ZM82.45,1.93h.94V12.69h6.54v.64H82.45Zm18.13,10.42h-7V8h6.11V7H93.6V2.76h6.83v-1H92.29V13.52h8.29V12.35Zm.18-.18h-7v-4h6.1V6.79h-6.1V3h6.83V1.56H92.11V13.7h8.65ZM92.48,1.93h7.77v.65H93.42V7.16h6.1v.65h-6.1v4.73h7v.79H92.48Zm19.73,11.73h1.3L108.14,1.89H107L101.6,13.66h1.3l1.46-3.19h6.54Zm-7.56-4.07,2.9-6.39,2.91,6.25Zm3.65-7.78,0-.11h-1.4l-5.54,12.15H103l1.46-3.2h6.29l1.31,3.2h1.72ZM111,10.28h-6.78l-1.46,3.2h-.9l5.21-11.41H108l5.21,11.41h-.9Zm-.27-.65-3.2-6.88-3.19,7Zm-.58-.36-5.23.13,2.62-5.76Zm13.52,4.39h1.16l-2.91-4.07a3.7,3.7,0,0,0,2.76-3.78c0-2.47-1.74-4.07-4.79-4.07h-4.36V13.52h1.31V9.74h4.07l2.76,3.78Zm-.15-7.85c0,1.89-1.16,2.91-3.63,3.06h-3.2v-6h3.2c2.32,0,3.63,1,3.63,2.9m-1.3,3.87a3.83,3.83,0,0,0,2.65-3.87c0-2.62-1.91-4.25-5-4.25h-4.55V13.7H117V9.92h3.79l2.67,3.66v.27h1.71ZM121,9.55h-4.35v3.78h-.94V1.93h4.18c2.89,0,4.61,1.45,4.61,3.9a3.53,3.53,0,0,1-2.64,3.59l-.23.08,2.84,4h-.62Zm-1.1-.5c2.53-.15,3.81-1.24,3.81-3.24s-1.36-3.09-3.82-3.09h-3.38V9.05h3.39Zm-3-6h3c1.57,0,3.45.47,3.45,2.72,0,1.82-1.1,2.73-3.45,2.87h-3Zm19.43-1.35v9.6l-7.56-9.6h-1V13.52h1.3V3.93l7.56,9.59h1V1.74Zm1.49-.18h-1.67V10.8l-7.29-9.24h-1.29V13.7h1.68V4.46l7.28,9.24h1.29Zm-8.94,1.83v9.94h-.94V1.93h.74l7.84,9.94V1.93h.93v11.4h-.74Zm12.68,10.13h1.31V1.74h-1.31Zm1.5-12h-1.68V13.7h1.68Zm-1.31.37h.94v11.4h-.94Zm13.62-.19v9.6l-7.56-9.6h-1V13.52H148V3.93l7.56,9.59h1V1.74Zm1.35-.18h-1.53V10.8L147.9,1.56h-1.29V13.7h1.53V4.46l7.29,9.24h1.29Zm-8.95,1.83v9.94H147V1.93h.74l7.84,9.94V1.93h.79v11.4h-.74Zm20.83,8.38a5.38,5.38,0,0,1-3,.88h-.29a5.08,5.08,0,0,1-4.8-4.95,4.62,4.62,0,0,1,1.31-3.34A5.09,5.09,0,0,1,169,4.07l.73-.73A5.58,5.58,0,0,0,165.4,1.6H165a5.87,5.87,0,0,0-5.81,6V8a6.55,6.55,0,0,0,10.61,4.22V7.7H168.6Zm-2.7,2.1a6.09,6.09,0,0,0,4-1.52l.07-.06V7.52h-1.54v4.15a5.16,5.16,0,0,1-2.86.79h-.28a4.9,4.9,0,0,1-4.63-4.76,4.43,4.43,0,0,1,1.26-3.21,4.91,4.91,0,0,1,7-.28l.13.12,1-1-.13-.13a5.83,5.83,0,0,0-4.49-1.8H165a6.08,6.08,0,0,0-6,6.15V8a6,6,0,0,0,2,4.27,6.18,6.18,0,0,0,4.43,1.58l.52,0m-.51-.39A5.82,5.82,0,0,1,161.2,12a5.68,5.68,0,0,1-1.86-4V7.56A5.71,5.71,0,0,1,165,1.78h.46a5.41,5.41,0,0,1,4.08,1.57l-.47.47a5.27,5.27,0,0,0-7.39.41,4.79,4.79,0,0,0-1.37,3.47,5.26,5.26,0,0,0,5,5.13h.29a5.57,5.57,0,0,0,3.15-.9l.08-.06v-4h.8v4.23a5.77,5.77,0,0,1-4.19,1.36M94.47,22.09h-1l-5.09,8.72-5.09-8.72h-1V33.87h1.17V24.42l4.65,7.85h.58l4.65-8v9.45h1.16V22.09Zm-10.86,3L88,32.45h.8L93.13,25v8.95h1.53V22h-.19v0H93.35l-5,8.54-5-8.54H82.08V34.05h1.53Zm-1.16-2.81h.73l5.19,8.9,5.19-8.9h.73V33.53H93.5V23.59l-5,8.49h-.37l-4.94-8.34v9.94h-.79Zm24.81,11.59h1.31l-5.38-11.78h-1.3L96.51,33.87h1.31l1.45-3.2h6.54Zm-7.7-4.22,2.91-6.39,2.9,6.39Zm3.8-7.63,0-.11h-1.54L96.22,34.05h1.72l1.45-3.2h6.3l1.45,3.2h1.72Zm2.57,8.46H99.15l-1.45,3.2h-.9l5.2-11.4h1.07l5.21,11.4h-.9Zm-3.46-7.67-3.2,7h6.39Zm0,.89,2.62,5.77H99.85ZM119,22v9.59L111.48,22h-1V33.72h1.31V24.13l7.56,9.59h1V22Zm1.49-.19h-1.68V31l-7.28-9.25h-1.29V33.91H112V24.66l7.29,9.25h1.29Zm-9,1.83v10h-.93V22.13h.74l7.83,9.94V22.13h.94V33.54h-.74ZM133,33.87h1.31l-5.38-11.78h-1.31l-5.38,11.78h1.31l1.46-3.2h6.54Zm-7.56-4.22,2.91-6.39,2.91,6.39ZM129.09,22l-.05-.11h-1.55L122,34.05h1.71l1.45-3.2h6.31l1.45,3.2h1.71Zm2.57,8.46h-6.78l-1.46,3.2h-.9l5.21-11.4h1.07L134,33.68h-.9Zm-3.32-7.67-3.2,7h6.39Zm0,.89L131,29.47h-5.24Zm16,8.28a5.41,5.41,0,0,1-3.06.87H141a5,5,0,0,1-4.79-4.94,5.44,5.44,0,0,1,1.45-3.35,5.1,5.1,0,0,1,7.27-.29l.72-.72a6.12,6.12,0,0,0-4.36-1.75h-.43a5.87,5.87,0,0,0-5.82,6v.44a6.54,6.54,0,0,0,10.61,4.21v-4.5h-1.16Zm-2.56,2.09a6.11,6.11,0,0,0,4-1.52l.06,0V27.72h-1.53l-.15,4.15a5.17,5.17,0,0,1-2.87.79H141a4.76,4.76,0,0,1-4.62-4.73,5.2,5.2,0,0,1,1.41-3.24,4.91,4.91,0,0,1,7-.28l.13.12,1-1-.14-.14a6.35,6.35,0,0,0-4.49-1.79h-.43a6.07,6.07,0,0,0-6,6.14v.44a6.09,6.09,0,0,0,6.42,5.85,4.35,4.35,0,0,0,.51,0m-.5-.39a5.71,5.71,0,0,1-6.06-5.48v-.44A5.71,5.71,0,0,1,140.84,22h.43a6,6,0,0,1,4.1,1.56l-.47.47a5.27,5.27,0,0,0-7.39.41A5.6,5.6,0,0,0,136,27.91,5.13,5.13,0,0,0,141,33h.29a5.58,5.58,0,0,0,3.16-.9l.08-.05.14-4h.8v4.24a5.76,5.76,0,0,1-4.18,1.35m16.28-1.12h-7.12V28.2h6.1v-1h-6.1V23h7V22h-8.14V33.72h8.28V32.56Zm.19-.19h-7.12v-4h6.1V27h-6.1V23.15h7V21.76h-8.51V33.91h8.66Zm-8.29-10.24h7.77v.65h-7v4.59h6.1V28h-6.1v4.73h7.12v.8h-7.92Zm23.22,0h-1l-5.09,8.72-5.08-8.72h-1V33.87h1.16V24.42l4.65,7.85h.59l4.65-8v9.45h1.16V22.09Zm-10.86,3,4.36,7.36H167L171.32,25v8.95h1.53V22h-.18v0h-1.13l-5,8.54-5-8.54h-1.31V34.05h1.54Zm-1.17-2.81h.73l5.19,8.9,5.2-8.9h.72V33.53h-.79V23.59l-4.94,8.49h-.37l-4.94-8.34v9.94h-.8Zm24.24,10.28h-7V28.2H184v-1H177.9V23h6.83V22h-8.14V33.72h8.29V32.56Zm.18-.19h-7v-4h6.1V27h-6.1V23.15h6.83V21.76h-8.51V33.91h8.65Zm-8.28-10.24h7.77v.65h-6.84v4.59h6.11V28h-6.11v4.73h7v.8h-7.91ZM196.36,22v9.59L188.8,22h-1V33.72h1.31V24.13l7.56,9.59h1V22Zm1.49-.19h-1.68V31l-7.28-9.25H187.6V33.91h1.68V24.66l7.28,9.25h1.29Zm-8.94,1.83v10H188V22.13h.74l7.83,9.94V22.13h.94V33.54h-.74Zm14.86,10.28h1.31V23.11h4.22v-1h-9.6v1h4.22Zm1.5-10.58h4.21V21.91h-10v1.38h4.21l-.15,10.76h1.69Zm-1.16-.36h-4.22v-.65h9.22v.65H204.9V33.68H204ZM81.25,48.26a5.86,5.86,0,0,0,6.1,5.66,6.15,6.15,0,0,0,4.36-1.74L91,51.45a4.52,4.52,0,0,1-3.49,1.46h-.44A5,5,0,0,1,82.41,48a5,5,0,0,1,5.09-4.79A5.1,5.1,0,0,1,91,44.62l.72-.73a6.15,6.15,0,0,0-4.36-1.74h-.29a5.86,5.86,0,0,0-5.81,6Zm5.83,5.85h.27a6.38,6.38,0,0,0,4.49-1.8l.13-.13-1-1-.13.15a4.26,4.26,0,0,1-3.34,1.39h-.43A4.76,4.76,0,0,1,82.59,48a4.84,4.84,0,0,1,4.91-4.62,4.93,4.93,0,0,1,3.35,1.4l.13.13,1-1-.13-.14A6.37,6.37,0,0,0,87.35,42h-.29a6.07,6.07,0,0,0-6,6.14v.2h0a6,6,0,0,0,6,5.8m-5.65-6a5.71,5.71,0,0,1,5.63-5.77h.29a6,6,0,0,1,4.1,1.56l-.47.46A5.23,5.23,0,0,0,82.22,48a5.13,5.13,0,0,0,4.84,5.13h.44A4.69,4.69,0,0,0,91,51.72l.46.46a6.06,6.06,0,0,1-4.11,1.56,5.67,5.67,0,0,1-5.91-5.49Zm14.35,4.94V48.69h6.11V47.53H95.78V43.31h6.83v-1H94.47V54.07h8.29v-1Zm7.16-.18H96v-4h6.1V47.34H96V43.5h6.83V42.11H94.29V54.25h8.65ZM94.66,42.48h7.77v.65H95.6v4.58h6.1v.8H95.6v4.73h7v.64H94.66Zm19.58-.18v9.59l-7.56-9.59h-1V54.07H107V44.48l7.56,9.59h1V42.3Zm1.49-.19h-1.67v9.24l-7.29-9.24h-1.29V54.25h1.68V45l7.28,9.24h1.29Zm-8.94,1.83v9.94h-.94V42.48h.74l7.84,9.94V42.48h.93v11.4h-.74Zm14.72,10.13h1.31V43.31H127v-1h-9.59v1h4.21ZM123,43.5h4.22V42.11h-10V43.5h4.22l-.15,10.75H123Zm-1.16-.37h-4.22v-.65h9.22v.65h-4.21V53.88h-.94Zm8.68,9.92V48.69h6.1V47.53h-6.1V43.31h6.83v-1h-8.14V54.07h8.29v-1Zm7.16-.18h-7v-4h6.11V47.34H130.7V43.5h6.83V42.11H129V54.25h8.66Zm-8.29-10.39h7.78v.65h-6.84v4.58h6.11v.8h-6.11v4.73h7v.64h-7.92Zm20.17,11.73-2.91-4.07a3.69,3.69,0,0,0,2.76-3.77c0-2.48-1.74-4.07-4.79-4.07h-4.36V54.07h1.3V50.29h4.07l2.77,3.78Zm-1.16-7.84c0,1.74-1.31,2.9-3.64,3.05h-3.2v-6h3.2c2.33,0,3.64,1,3.64,2.91m-1.46,3.87a3.84,3.84,0,0,0,2.66-3.87c0-2.63-1.91-4.26-5-4.26h-4.55V54.25h1.68V50.47h3.79l2.71,3.71,0,.06,1.66.21Zm-1.21-.14h-4.35v3.78h-.94V42.48h4.18c2.88,0,4.61,1.45,4.61,3.9A3.53,3.53,0,0,1,146.59,50l-.23.08,2.8,3.93-.66-.09Zm-1-.5c2.39-.15,3.81-1.36,3.81-3.23s-1.35-3.1-3.82-3.1h-3.38V49.6h3.39Zm-3-6h3c1.58,0,3.45.48,3.45,2.73,0,1.68-1.26,2.72-3.45,2.86h-3Z"/><polygon class="cls-2" points="30.52 42.3 30.52 47.09 9.01 40.12 9.01 14.54 13.52 15.99 13.52 36.77 26.16 40.84 30.52 42.3"/><polygon class="cls-2" points="4.5 8.29 4.5 43.75 34.88 55.67 34.88 58.14 32.56 57.41 4.51 48.26 0 46.8 0 42.01 0 2.04 34.88 15.84 34.88 18.31 4.5 8.29"/><polygon class="cls-3" points="69.91 41.86 69.91 46.66 37.21 57.27 34.88 57.99 34.88 55.52 65.26 43.6 65.26 8.29 34.88 18.17 34.88 15.7 69.91 1.89 69.91 41.86"/><polygon class="cls-2" points="8.43 0 8.43 3.63 34.88 13.66 34.88 11.48 8.43 0"/><polygon class="cls-3" points="61.34 0 34.88 11.63 34.88 13.81 61.34 3.78 61.34 0"/><polygon class="cls-3" points="39.53 26.31 39.53 42.3 60.75 35.32 60.75 40.12 34.88 48.55 34.88 22.96 60.75 14.54 60.75 19.33 39.53 26.31"/></g></g></g></svg>